<svg width="50" height="50" viewBox="0 0 50 50" fill="none" xmlns="http://www.w3.org/2000/svg">
<path d="M18.75 22.9166V41.6666M18.75 22.9166H9.58252C8.41574 22.9166 7.83294 22.9166 7.38729 23.1437C6.99528 23.3435 6.67681 23.6619 6.47707 24.0539C6.25 24.4996 6.25 25.0834 6.25 26.2502V41.6666H18.75M18.75 22.9166V11.6668C18.75 10.5001 18.75 9.91625 18.9771 9.4706C19.1768 9.0786 19.4953 8.76012 19.8873 8.56038C20.3329 8.33331 20.9157 8.33331 22.0825 8.33331H27.9159C29.0826 8.33331 29.6672 8.33331 30.1129 8.56038C30.5049 8.76012 30.8224 9.0786 31.0221 9.4706C31.2492 9.91625 31.25 10.5001 31.25 11.6668V16.6666M18.75 41.6666H31.25M31.25 41.6666L43.75 41.6668V20.0002C43.75 18.8334 43.7492 18.2496 43.5221 17.8039C43.3224 17.4119 43.0061 17.0935 42.6141 16.8937C42.1685 16.6666 41.5834 16.6666 40.4167 16.6666H31.25M31.25 41.6666V16.6666" stroke="white" stroke-width="3" stroke-linecap="round" stroke-linejoin="round"/>
</svg>
