<svg width="50" height="50" viewBox="0 0 50 50" fill="none" xmlns="http://www.w3.org/2000/svg">
<path d="M8.3335 16.6667H41.6668M8.3335 16.6667V35.0004C8.3335 37.334 8.3335 38.5001 8.78764 39.3914C9.18711 40.1755 9.82406 40.8135 10.6081 41.213C11.4985 41.6667 12.6647 41.6667 14.9937 41.6667H35.0066C37.3356 41.6667 38.5001 41.6667 39.3906 41.213C40.1746 40.8135 40.8137 40.1755 41.2131 39.3914C41.6668 38.501 41.6668 37.3365 41.6668 35.0075V16.6667M8.3335 16.6667V15.0004C8.3335 12.6669 8.3335 11.4992 8.78764 10.6079C9.18711 9.82392 9.82406 9.18697 10.6081 8.78749C11.4994 8.33335 12.667 8.33335 15.0006 8.33335H16.6668M41.6668 16.6667V14.9936C41.6668 12.6646 41.6668 11.4984 41.2131 10.6079C40.8137 9.82392 40.1746 9.18697 39.3906 8.78749C38.4993 8.33335 37.3341 8.33335 35.0006 8.33335H33.3335M16.6668 8.33335H33.3335M16.6668 8.33335V4.16669M33.3335 8.33335V4.16669M31.2502 25L22.9168 33.3334L18.7502 29.1667" stroke="white" stroke-width="3" stroke-linecap="round" stroke-linejoin="round"/>
</svg>
