<svg width="50" height="50" viewBox="0 0 50 50" fill="none" xmlns="http://www.w3.org/2000/svg">
<path d="M8.3335 11.6669V21.6669C8.3335 22.8337 8.3335 23.4167 8.56057 23.8624C8.7603 24.2544 9.07878 24.5734 9.47078 24.7732C9.916 25 10.4991 25 11.6636 25H21.67C22.8345 25 23.4168 25 23.862 24.7732C24.254 24.5734 24.5736 24.2544 24.7733 23.8624C25.0002 23.4172 25.0002 22.8349 25.0002 21.6704V11.6635C25.0002 10.499 25.0002 9.91585 24.7733 9.47063C24.5736 9.07863 24.254 8.76015 23.862 8.56041C23.4164 8.33334 22.8338 8.33334 21.667 8.33334H11.667C10.5003 8.33334 9.91643 8.33334 9.47078 8.56041C9.07878 8.76015 8.7603 9.07863 8.56057 9.47063C8.3335 9.91628 8.3335 10.5001 8.3335 11.6669Z" stroke="white" stroke-width="3" stroke-linecap="round" stroke-linejoin="round"/>
<path d="M29.1665 10.0001V15.0001C29.1665 15.5835 29.1665 15.875 29.3368 16.0979C29.4866 16.2939 29.7255 16.4534 30.0195 16.5533C30.3534 16.6667 30.7907 16.6667 31.6641 16.6667H39.1689C40.0423 16.6667 40.479 16.6667 40.8129 16.5533C41.1069 16.4534 41.3466 16.2939 41.4964 16.0979C41.6665 15.8753 41.6665 15.5841 41.6665 15.0019V9.9984C41.6665 9.41615 41.6665 9.12459 41.4964 8.90199C41.3466 8.70599 41.1069 8.54675 40.8129 8.44688C40.4787 8.33334 40.0417 8.33334 39.1667 8.33334H31.6667C30.7916 8.33334 30.3537 8.33334 30.0195 8.44688C29.7255 8.54675 29.4866 8.70599 29.3368 8.90199C29.1665 9.12481 29.1665 9.41672 29.1665 10.0001Z" stroke="white" stroke-width="3" stroke-linecap="round" stroke-linejoin="round"/>
<path d="M8.3335 31.6668V39.1668C8.3335 40.0419 8.3335 40.4792 8.56057 40.8134C8.7603 41.1074 9.07878 41.3467 9.47078 41.4965C9.916 41.6667 10.4991 41.6667 11.6636 41.6667H21.67C22.8345 41.6667 23.4168 41.6667 23.862 41.4965C24.254 41.3467 24.5736 41.1074 24.7733 40.8134C25.0002 40.4795 25.0002 40.0428 25.0002 39.1695V31.6642C25.0002 30.7909 25.0002 30.3535 24.7733 30.0196C24.5736 29.7256 24.254 29.4868 23.862 29.337C23.4164 29.1667 22.8338 29.1667 21.667 29.1667H11.667C10.5003 29.1667 9.91643 29.1667 9.47078 29.337C9.07878 29.4868 8.7603 29.7256 8.56057 30.0196C8.3335 30.3539 8.3335 30.7917 8.3335 31.6668Z" stroke="white" stroke-width="3" stroke-linecap="round" stroke-linejoin="round"/>
<path d="M29.1665 25.0003V37.5003C29.1665 38.9587 29.1665 39.6876 29.3368 40.2447C29.4866 40.7347 29.7255 41.1334 30.0195 41.3831C30.3534 41.6667 30.7907 41.6667 31.6641 41.6667H39.1689C40.0423 41.6667 40.479 41.6667 40.8129 41.3831C41.1069 41.1334 41.3466 40.7347 41.4964 40.2447C41.6665 39.6881 41.6665 38.9603 41.6665 37.5047V24.996C41.6665 23.5404 41.6665 22.8115 41.4964 22.255C41.3466 21.7649 41.1069 21.3669 40.8129 21.1172C40.4787 20.8333 40.0417 20.8333 39.1667 20.8333H31.6667C30.7916 20.8333 30.3537 20.8333 30.0195 21.1172C29.7255 21.3669 29.4866 21.7649 29.3368 22.255C29.1665 22.812 29.1665 23.5418 29.1665 25.0003Z" stroke="white" stroke-width="3" stroke-linecap="round" stroke-linejoin="round"/>
</svg>
