<svg width="12" height="19" viewBox="0 0 12 19" fill="none" xmlns="http://www.w3.org/2000/svg">
<path d="M3.15813 2.45819L8.21076 2.45819C8.6274 2.45819 8.83595 2.45819 8.95922 2.54919C9.06681 2.62861 9.13745 2.75103 9.15434 2.88694C9.17368 3.0426 9.07558 3.23352 8.87966 3.6148L6.35334 8.53124L6.35258 8.53302C6.13606 8.95439 6.02775 9.16517 5.88339 9.23431C5.75745 9.29463 5.61209 9.29463 5.48615 9.23431C5.34159 9.16508 5.23284 8.9538 5.01571 8.53124L2.48939 3.6148C2.29333 3.23324 2.1956 3.04266 2.21495 2.88694C2.23184 2.75103 2.30247 2.62861 2.41006 2.54919C2.53333 2.45819 2.74149 2.45819 3.15813 2.45819Z" stroke="#121212" stroke-width="2" stroke-linecap="round" stroke-linejoin="round"/>
<path d="M8.21052 16.2243L3.15789 16.2243C2.74125 16.2243 2.5327 16.2243 2.40943 16.1333C2.30184 16.0539 2.2312 15.9315 2.21431 15.7956C2.19497 15.6399 2.29307 15.449 2.489 15.0677L5.01531 10.1513L5.01608 10.1495C5.2326 9.7281 5.34091 9.51732 5.48527 9.44818C5.6112 9.38787 5.75657 9.38787 5.8825 9.44818C6.02706 9.51742 6.13581 9.7287 6.35295 10.1513L8.87926 15.0677C9.07533 15.4493 9.17305 15.6398 9.1537 15.7956C9.13681 15.9315 9.06619 16.0539 8.95859 16.1333C8.83532 16.2243 8.62716 16.2243 8.21052 16.2243Z" stroke="#121212" stroke-width="2" stroke-linecap="round" stroke-linejoin="round"/>
</svg>
