<svg width="20" height="20" viewBox="0 0 20 20" fill="none" xmlns="http://www.w3.org/2000/svg">
<path d="M8.33366 3.33335H6.00033C5.0669 3.33335 4.59985 3.33335 4.24333 3.51501C3.92972 3.6748 3.67494 3.92958 3.51515 4.24318C3.3335 4.5997 3.3335 5.06676 3.3335 6.00018V14.0002C3.3335 14.9336 3.3335 15.4001 3.51515 15.7566C3.67494 16.0702 3.92972 16.3254 4.24333 16.4852C4.5995 16.6667 5.06599 16.6667 5.99759 16.6667H14.0027C14.9343 16.6667 15.4002 16.6667 15.7563 16.4852C16.0699 16.3254 16.3256 16.07 16.4854 15.7563C16.6668 15.4002 16.6668 14.9342 16.6668 14.0026V11.6667M13.3335 4.16669L8.3335 9.16669V11.6667H10.8335L15.8335 6.66669M13.3335 4.16669L15.8335 1.66669L18.3335 4.16669L15.8335 6.66669M13.3335 4.16669L15.8335 6.66669" stroke="white" stroke-width="2" stroke-linecap="round" stroke-linejoin="round"/>
</svg>
