<svg width="50" height="50" viewBox="0 0 50 50" fill="none" xmlns="http://www.w3.org/2000/svg">
<path d="M26.9289 42.9821C31.3167 40.996 41.6668 34.8611 41.6668 21.1772V12.9102C41.6668 10.5812 41.6668 9.415 41.2131 8.52458C40.8137 7.74057 40.1746 7.10361 39.3906 6.70414C38.4993 6.25 37.3341 6.25 35.0006 6.25H15.0006C12.667 6.25 11.4994 6.25 10.6081 6.70414C9.82406 7.10361 9.18711 7.74057 8.78764 8.52458C8.3335 9.41588 8.3335 10.5835 8.3335 12.9171V21.1772C8.3335 34.861 18.6831 40.996 23.0709 42.9821C23.5361 43.1926 23.7698 43.2977 24.2963 43.3881C24.6284 43.4451 25.374 43.4451 25.7061 43.3881C26.2308 43.298 26.4621 43.1933 26.9241 42.9842L26.9289 42.9821Z" stroke="white" stroke-width="3" stroke-linecap="round" stroke-linejoin="round"/>
<path d="M15.335 20.3368C15.0217 20.0471 15.1919 19.5234 15.6156 19.4732L21.6191 18.7611C21.7918 18.7406 21.9418 18.6322 22.0146 18.4742L24.5469 12.9845C24.7256 12.597 25.2764 12.597 25.4551 12.9844L27.9873 18.4741C28.0601 18.632 28.2092 18.7408 28.3818 18.7612L34.3857 19.4732C34.8094 19.5234 34.9791 20.0472 34.6659 20.3369L30.2278 24.4419C30.1001 24.56 30.0433 24.7357 30.0771 24.9063L31.255 30.8359C31.3382 31.2544 30.8928 31.5787 30.5205 31.3703L25.2451 28.4166C25.0934 28.3317 24.9091 28.3321 24.7573 28.417L19.4814 31.3695C19.1091 31.5779 18.6629 31.2544 18.7461 30.8359L19.9241 24.9066C19.958 24.7361 19.9013 24.5599 19.7737 24.4419L15.335 20.3368Z" fill="white" stroke="white" stroke-width="2" stroke-linecap="round" stroke-linejoin="round"/>
</svg>
