<svg width="138" height="41" viewBox="0 0 138 41" fill="none" xmlns="http://www.w3.org/2000/svg">
<path d="M1.39062 22V6H7.79687C8.97396 6 9.95573 6.17448 10.7422 6.52344C11.5286 6.8724 12.1198 7.35677 12.5156 7.97656C12.9115 8.59115 13.1094 9.29948 13.1094 10.1016C13.1094 10.7266 12.9844 11.276 12.7344 11.75C12.4844 12.2187 12.1406 12.6042 11.7031 12.9062C11.2708 13.2031 10.776 13.4141 10.2188 13.5391V13.6953C10.8281 13.7214 11.3984 13.8932 11.9297 14.2109C12.4661 14.5286 12.901 14.974 13.2344 15.5469C13.5677 16.1146 13.7344 16.7917 13.7344 17.5781C13.7344 18.4271 13.5234 19.1849 13.1016 19.8516C12.6849 20.513 12.0677 21.0365 11.25 21.4219C10.4323 21.8073 9.42448 22 8.22656 22H1.39062ZM4.77344 19.2344H7.53125C8.47396 19.2344 9.16146 19.0547 9.59375 18.6953C10.026 18.3307 10.2422 17.8464 10.2422 17.2422C10.2422 16.7995 10.1354 16.4089 9.92188 16.0703C9.70833 15.7318 9.40365 15.4661 9.00781 15.2734C8.61719 15.0807 8.15104 14.9844 7.60938 14.9844H4.77344V19.2344ZM4.77344 12.6953H7.28125C7.74479 12.6953 8.15625 12.6146 8.51563 12.4531C8.88021 12.2865 9.16667 12.0521 9.375 11.75C9.58854 11.4479 9.69531 11.0859 9.69531 10.6641C9.69531 10.0859 9.48958 9.61979 9.07813 9.26562C8.67188 8.91146 8.09375 8.73437 7.34375 8.73437H4.77344V12.6953ZM15.9355 22V6H26.7168V8.78906H19.3184V12.6016H26.1621V15.3906H19.3184V19.2109H26.748V22H15.9355ZM42.7891 6V22H39.8672L32.9063 11.9297H32.7891V22H29.4062V6H32.375L39.2813 16.0625H39.4219V6H42.7891ZM59.7012 11.6016H56.2793C56.2168 11.1589 56.0892 10.7656 55.8965 10.4219C55.7038 10.0729 55.4564 9.77604 55.1543 9.53125C54.8522 9.28646 54.5033 9.09896 54.1074 8.96875C53.7168 8.83854 53.2923 8.77344 52.834 8.77344C52.0059 8.77344 51.2845 8.97917 50.6699 9.39062C50.0553 9.79687 49.5788 10.3906 49.2402 11.1719C48.9017 11.9479 48.7324 12.8906 48.7324 14C48.7324 15.1406 48.9017 16.099 49.2402 16.875C49.584 17.651 50.0632 18.237 50.6777 18.6328C51.2923 19.0286 52.0033 19.2266 52.8105 19.2266C53.2637 19.2266 53.6829 19.1667 54.0684 19.0469C54.459 18.9271 54.8053 18.7526 55.1074 18.5234C55.4095 18.2891 55.6595 18.0052 55.8574 17.6719C56.0605 17.3385 56.2012 16.9583 56.2793 16.5312L59.7012 16.5469C59.6126 17.2812 59.3913 17.9896 59.0371 18.6719C58.6882 19.349 58.2168 19.9557 57.623 20.4922C57.0345 21.0234 56.3314 21.4453 55.5137 21.7578C54.7012 22.0651 53.7819 22.2187 52.7559 22.2187C51.3288 22.2187 50.0527 21.8958 48.9277 21.25C47.8079 20.6042 46.9225 19.6693 46.2715 18.4453C45.6257 17.2214 45.3027 15.7396 45.3027 14C45.3027 12.2552 45.6309 10.7708 46.2871 9.54688C46.9434 8.32292 47.834 7.39062 48.959 6.75C50.084 6.10417 51.3496 5.78125 52.7559 5.78125C53.6829 5.78125 54.5423 5.91146 55.334 6.17187C56.1309 6.43229 56.8366 6.8125 57.4512 7.3125C58.0658 7.80729 58.5658 8.41406 58.9512 9.13281C59.3418 9.85156 59.5918 10.6745 59.7012 11.6016ZM62.127 22V6H65.5098V12.6016H72.377V6H75.752V22H72.377V15.3906H65.5098V22H62.127ZM78.3691 22V19.9922L86.3535 8.78906H78.3535V6H90.6035V8.00781L82.6113 19.2109H90.6191V22H78.3691Z" fill="white"/>
<path d="M93.6321 22V14.7273H98.4474V15.995H95.1697V17.728H98.1278V18.9957H95.1697V22H93.6321ZM101.019 14.7273V22H99.4817V14.7273H101.019ZM102.007 15.995V14.7273H107.98V15.995H105.754V22H104.234V15.995H102.007ZM115.047 14.7273V22H113.719L110.555 17.4226H110.502V22H108.964V14.7273H110.314L113.453 19.3011H113.517V14.7273H115.047ZM116.318 22V14.7273H121.218V15.995H117.855V17.728H120.966V18.9957H117.855V20.7322H121.232V22H116.318ZM126.386 16.8189C126.358 16.5324 126.236 16.3099 126.02 16.1513C125.805 15.9927 125.512 15.9134 125.143 15.9134C124.892 15.9134 124.68 15.9489 124.507 16.0199C124.335 16.0885 124.202 16.1844 124.11 16.3075C124.02 16.4306 123.975 16.5703 123.975 16.7266C123.97 16.8568 123.997 16.9704 124.056 17.0675C124.118 17.1645 124.202 17.2486 124.309 17.3196C124.415 17.3883 124.538 17.4486 124.678 17.5007C124.818 17.5504 124.967 17.593 125.125 17.6286L125.779 17.7848C126.096 17.8558 126.387 17.9505 126.652 18.0689C126.917 18.1873 127.147 18.3329 127.341 18.5057C127.535 18.6785 127.686 18.8821 127.792 19.1165C127.901 19.3509 127.957 19.6196 127.959 19.9226C127.957 20.3677 127.843 20.7536 127.618 21.0803C127.396 21.4046 127.074 21.6567 126.652 21.8366C126.233 22.0142 125.728 22.103 125.136 22.103C124.549 22.103 124.038 22.013 123.602 21.8331C123.169 21.6532 122.83 21.3868 122.586 21.0341C122.345 20.679 122.218 20.2398 122.206 19.7166H123.694C123.711 19.9605 123.781 20.1641 123.904 20.3274C124.029 20.4884 124.196 20.6103 124.404 20.6932C124.615 20.7737 124.853 20.8139 125.118 20.8139C125.379 20.8139 125.605 20.776 125.797 20.7003C125.991 20.6245 126.141 20.5192 126.248 20.3842C126.354 20.2493 126.407 20.0942 126.407 19.919C126.407 19.7557 126.359 19.6184 126.262 19.5071C126.167 19.3958 126.027 19.3011 125.843 19.223C125.66 19.1449 125.437 19.0739 125.172 19.0099L124.38 18.8111C123.766 18.6619 123.282 18.4287 122.927 18.1115C122.572 17.7943 122.396 17.367 122.398 16.8295C122.396 16.3892 122.513 16.0045 122.75 15.6754C122.989 15.3464 123.317 15.0895 123.733 14.9048C124.15 14.7202 124.623 14.6278 125.154 14.6278C125.694 14.6278 126.165 14.7202 126.567 14.9048C126.972 15.0895 127.287 15.3464 127.512 15.6754C127.737 16.0045 127.853 16.3857 127.86 16.8189H126.386ZM132.939 16.8189C132.91 16.5324 132.788 16.3099 132.573 16.1513C132.358 15.9927 132.065 15.9134 131.696 15.9134C131.445 15.9134 131.233 15.9489 131.06 16.0199C130.887 16.0885 130.755 16.1844 130.662 16.3075C130.573 16.4306 130.528 16.5703 130.528 16.7266C130.523 16.8568 130.55 16.9704 130.609 17.0675C130.671 17.1645 130.755 17.2486 130.861 17.3196C130.968 17.3883 131.091 17.4486 131.231 17.5007C131.37 17.5504 131.519 17.593 131.678 17.6286L132.331 17.7848C132.649 17.8558 132.94 17.9505 133.205 18.0689C133.47 18.1873 133.7 18.3329 133.894 18.5057C134.088 18.6785 134.238 18.8821 134.345 19.1165C134.454 19.3509 134.51 19.6196 134.512 19.9226C134.51 20.3677 134.396 20.7536 134.171 21.0803C133.948 21.4046 133.626 21.6567 133.205 21.8366C132.786 22.0142 132.281 22.103 131.689 22.103C131.102 22.103 130.59 22.013 130.155 21.8331C129.721 21.6532 129.383 21.3868 129.139 21.0341C128.898 20.679 128.771 20.2398 128.759 19.7166H130.247C130.264 19.9605 130.333 20.1641 130.456 20.3274C130.582 20.4884 130.749 20.6103 130.957 20.6932C131.168 20.7737 131.406 20.8139 131.671 20.8139C131.931 20.8139 132.157 20.776 132.349 20.7003C132.543 20.6245 132.694 20.5192 132.8 20.3842C132.907 20.2493 132.96 20.0942 132.96 19.919C132.96 19.7557 132.912 19.6184 132.814 19.5071C132.72 19.3958 132.58 19.3011 132.395 19.223C132.213 19.1449 131.989 19.0739 131.724 19.0099L130.932 18.8111C130.319 18.6619 129.835 18.4287 129.48 18.1115C129.125 17.7943 128.948 17.367 128.951 16.8295C128.948 16.3892 129.066 16.0045 129.302 15.6754C129.541 15.3464 129.869 15.0895 130.286 14.9048C130.703 14.7202 131.176 14.6278 131.706 14.6278C132.246 14.6278 132.717 14.7202 133.12 14.9048C133.525 15.0895 133.84 15.3464 134.064 15.6754C134.289 16.0045 134.405 16.3857 134.412 16.8189H132.939Z" fill="white"/>
<rect x="56" y="27" width="82" height="14" rx="2" fill="white"/>
<path d="M60.7948 38H59.1471L61.6578 30.7273H63.6393L66.1464 38H64.4987L62.6769 32.3892H62.6201L60.7948 38ZM60.6919 35.1413H64.5839V36.3416H60.6919V35.1413ZM69.5999 38H67.0218V30.7273H69.6212C70.3527 30.7273 70.9825 30.8729 71.5104 31.1641C72.0383 31.4529 72.4443 31.8684 72.7284 32.4105C73.0149 32.9527 73.1581 33.6013 73.1581 34.3565C73.1581 35.1141 73.0149 35.7652 72.7284 36.3097C72.4443 36.8542 72.036 37.272 71.5033 37.5632C70.973 37.8544 70.3385 38 69.5999 38ZM68.5594 36.6825H69.536C69.9905 36.6825 70.3728 36.602 70.683 36.4411C70.9955 36.2777 71.2298 36.0256 71.3861 35.6847C71.5447 35.3414 71.624 34.8987 71.624 34.3565C71.624 33.8191 71.5447 33.38 71.3861 33.0391C71.2298 32.6982 70.9967 32.4472 70.6865 32.2862C70.3764 32.1252 69.9941 32.0447 69.5395 32.0447H68.5594V36.6825ZM74.2971 30.7273H76.1934L78.1963 35.6136H78.2815L80.2844 30.7273H82.1807V38H80.6892V33.2663H80.6288L78.7467 37.9645H77.7311L75.849 33.2486H75.7886V38H74.2971V30.7273ZM84.9852 30.7273V38H83.4475V30.7273H84.9852ZM92.3334 30.7273V38H91.0052L87.8412 33.4226H87.7879V38H86.2503V30.7273H87.5997L90.7389 35.3011H90.8028V30.7273H92.3334ZM95.9182 38V30.7273H98.7876C99.3392 30.7273 99.8091 30.8326 100.197 31.0433C100.586 31.2517 100.882 31.5417 101.085 31.9134C101.291 32.2827 101.394 32.7088 101.394 33.1918C101.394 33.6747 101.29 34.1009 101.082 34.4702C100.873 34.8395 100.571 35.1271 100.176 35.3331C99.7831 35.5391 99.3072 35.642 98.7485 35.642H96.9197V34.4098H98.4999C98.7958 34.4098 99.0397 34.3589 99.2314 34.2571C99.4256 34.1529 99.57 34.0097 99.6647 33.8274C99.7617 33.6428 99.8103 33.4309 99.8103 33.1918C99.8103 32.9503 99.7617 32.7396 99.6647 32.5597C99.57 32.3774 99.4256 32.2365 99.2314 32.1371C99.0373 32.0353 98.7911 31.9844 98.4928 31.9844H97.4559V38H95.9182ZM109.076 34.3636C109.076 35.1567 108.926 35.8314 108.625 36.3878C108.327 36.9441 107.92 37.3691 107.403 37.6626C106.89 37.9538 106.312 38.0994 105.671 38.0994C105.024 38.0994 104.444 37.9527 103.93 37.6591C103.417 37.3655 103.011 36.9406 102.712 36.3842C102.414 35.8279 102.265 35.1544 102.265 34.3636C102.265 33.5705 102.414 32.8958 102.712 32.3395C103.011 31.7831 103.417 31.3594 103.93 31.0682C104.444 30.7746 105.024 30.6278 105.671 30.6278C106.312 30.6278 106.89 30.7746 107.403 31.0682C107.92 31.3594 108.327 31.7831 108.625 32.3395C108.926 32.8958 109.076 33.5705 109.076 34.3636ZM107.517 34.3636C107.517 33.8499 107.44 33.4167 107.286 33.0639C107.135 32.7112 106.921 32.4437 106.644 32.2614C106.367 32.0791 106.042 31.9879 105.671 31.9879C105.299 31.9879 104.975 32.0791 104.698 32.2614C104.421 32.4437 104.205 32.7112 104.051 33.0639C103.9 33.4167 103.824 33.8499 103.824 34.3636C103.824 34.8774 103.9 35.3106 104.051 35.6634C104.205 36.0161 104.421 36.2836 104.698 36.4659C104.975 36.6482 105.299 36.7393 105.671 36.7393C106.042 36.7393 106.367 36.6482 106.644 36.4659C106.921 36.2836 107.135 36.0161 107.286 35.6634C107.44 35.3106 107.517 34.8774 107.517 34.3636ZM110.215 38V30.7273H113.084C113.634 30.7273 114.102 30.8255 114.491 31.022C114.881 31.2161 115.178 31.492 115.382 31.8494C115.588 32.2045 115.691 32.6224 115.691 33.103C115.691 33.5859 115.587 34.0014 115.378 34.3494C115.17 34.6951 114.868 34.9602 114.473 35.1449C114.08 35.3295 113.604 35.4219 113.045 35.4219H111.124V34.1861H112.797C113.09 34.1861 113.334 34.1458 113.528 34.0653C113.722 33.9848 113.867 33.8641 113.962 33.7031C114.059 33.5421 114.107 33.3421 114.107 33.103C114.107 32.8615 114.059 32.6579 113.962 32.4922C113.867 32.3265 113.721 32.201 113.525 32.1158C113.331 32.0282 113.086 31.9844 112.79 31.9844H111.753V38H110.215ZM114.143 34.6903L115.95 38H114.253L112.484 34.6903H114.143ZM116.501 31.995V30.7273H122.474V31.995H120.247V38H118.727V31.995H116.501ZM123.822 38H122.174L124.685 30.7273H126.667L129.174 38H127.526L125.704 32.3892H125.647L123.822 38ZM123.719 35.1413H127.611V36.3416H123.719V35.1413ZM130.049 38V30.7273H131.587V36.7322H134.705V38H130.049Z" fill="#810E25"/>
</svg>
