<svg width="50" height="50" viewBox="0 0 50 50" fill="none" xmlns="http://www.w3.org/2000/svg">
<path d="M17 41L17 14" stroke="white" stroke-width="3" stroke-linecap="round" stroke-linejoin="round"/>
<path d="M11 16L40 16" stroke="white" stroke-width="2" stroke-linecap="round" stroke-linejoin="round"/>
<path d="M11 23L40 23" stroke="white" stroke-width="2" stroke-linecap="round" stroke-linejoin="round"/>
<path d="M32.7954 18.5164C31.9414 16.2786 29.3033 11 23.419 11L19.864 11C18.8625 11 18.361 11 17.9781 11.2314C17.641 11.4351 17.3671 11.761 17.1953 12.1609C17 12.6155 17 13.2097 17 14.3998L17 24.5998C17 25.7899 17 26.3854 17.1953 26.84C17.3671 27.2398 17.641 27.5647 17.9781 27.7684C18.3614 28 18.8635 28 19.867 28L23.4189 28C29.3032 28 31.9414 22.7217 32.7954 20.4839C32.886 20.2467 32.9312 20.1275 32.97 19.859C32.9946 19.6896 33.0129 19.6694 32.9884 19.5C32.9497 19.2324 32.8863 18.7544 32.7964 18.5188L32.7954 18.5164Z" stroke="white" stroke-width="3" stroke-linecap="round" stroke-linejoin="round"/>
</svg>
