<svg width="92" height="34" viewBox="0 0 92 34" fill="none" xmlns="http://www.w3.org/2000/svg">
<path d="M1.39062 22V6H7.79687C8.97396 6 9.95573 6.17448 10.7422 6.52344C11.5286 6.8724 12.1198 7.35677 12.5156 7.97656C12.9115 8.59115 13.1094 9.29948 13.1094 10.1016C13.1094 10.7266 12.9844 11.276 12.7344 11.75C12.4844 12.2187 12.1406 12.6042 11.7031 12.9062C11.2708 13.2031 10.776 13.4141 10.2188 13.5391V13.6953C10.8281 13.7214 11.3984 13.8932 11.9297 14.2109C12.4661 14.5286 12.901 14.974 13.2344 15.5469C13.5677 16.1146 13.7344 16.7917 13.7344 17.5781C13.7344 18.4271 13.5234 19.1849 13.1016 19.8516C12.6849 20.513 12.0677 21.0365 11.25 21.4219C10.4323 21.8073 9.42448 22 8.22656 22H1.39062ZM4.77344 19.2344H7.53125C8.47396 19.2344 9.16146 19.0547 9.59375 18.6953C10.026 18.3307 10.2422 17.8464 10.2422 17.2422C10.2422 16.7995 10.1354 16.4089 9.92188 16.0703C9.70833 15.7318 9.40365 15.4661 9.00781 15.2734C8.61719 15.0807 8.15104 14.9844 7.60938 14.9844H4.77344V19.2344ZM4.77344 12.6953H7.28125C7.74479 12.6953 8.15625 12.6146 8.51563 12.4531C8.88021 12.2865 9.16667 12.0521 9.375 11.75C9.58854 11.4479 9.69531 11.0859 9.69531 10.6641C9.69531 10.0859 9.48958 9.61979 9.07813 9.26562C8.67188 8.91146 8.09375 8.73437 7.34375 8.73437H4.77344V12.6953ZM15.9355 22V6H26.7168V8.78906H19.3184V12.6016H26.1621V15.3906H19.3184V19.2109H26.748V22H15.9355ZM42.7891 6V22H39.8672L32.9063 11.9297H32.7891V22H29.4062V6H32.375L39.2813 16.0625H39.4219V6H42.7891ZM59.7012 11.6016H56.2793C56.2168 11.1589 56.0892 10.7656 55.8965 10.4219C55.7038 10.0729 55.4564 9.77604 55.1543 9.53125C54.8522 9.28646 54.5033 9.09896 54.1074 8.96875C53.7168 8.83854 53.2923 8.77344 52.834 8.77344C52.0059 8.77344 51.2845 8.97917 50.6699 9.39062C50.0553 9.79687 49.5788 10.3906 49.2402 11.1719C48.9017 11.9479 48.7324 12.8906 48.7324 14C48.7324 15.1406 48.9017 16.099 49.2402 16.875C49.584 17.651 50.0632 18.237 50.6777 18.6328C51.2923 19.0286 52.0033 19.2266 52.8105 19.2266C53.2637 19.2266 53.6829 19.1667 54.0684 19.0469C54.459 18.9271 54.8053 18.7526 55.1074 18.5234C55.4095 18.2891 55.6595 18.0052 55.8574 17.6719C56.0605 17.3385 56.2012 16.9583 56.2793 16.5312L59.7012 16.5469C59.6126 17.2812 59.3913 17.9896 59.0371 18.6719C58.6882 19.349 58.2168 19.9557 57.623 20.4922C57.0345 21.0234 56.3314 21.4453 55.5137 21.7578C54.7012 22.0651 53.7819 22.2187 52.7559 22.2187C51.3288 22.2187 50.0527 21.8958 48.9277 21.25C47.8079 20.6042 46.9225 19.6693 46.2715 18.4453C45.6257 17.2214 45.3027 15.7396 45.3027 14C45.3027 12.2552 45.6309 10.7708 46.2871 9.54688C46.9434 8.32292 47.834 7.39062 48.959 6.75C50.084 6.10417 51.3496 5.78125 52.7559 5.78125C53.6829 5.78125 54.5423 5.91146 55.334 6.17187C56.1309 6.43229 56.8366 6.8125 57.4512 7.3125C58.0658 7.80729 58.5658 8.41406 58.9512 9.13281C59.3418 9.85156 59.5918 10.6745 59.7012 11.6016ZM62.127 22V6H65.5098V12.6016H72.377V6H75.752V22H72.377V15.3906H65.5098V22H62.127ZM78.3691 22V19.9922L86.3535 8.78906H78.3535V6H90.6035V8.00781L82.6113 19.2109H90.6191V22H78.3691Z" fill="black"/>
<path d="M49.6321 32V24.7273H54.4474V25.995H51.1697V27.728H54.1278V28.9957H51.1697V32H49.6321ZM57.0194 24.7273V32H55.4817V24.7273H57.0194ZM58.0075 25.995V24.7273H63.9805V25.995H61.7539V32H60.234V25.995H58.0075ZM71.0472 24.7273V32H69.7191L66.555 27.4226H66.5018V32H64.9641V24.7273H66.3136L69.4528 29.3011H69.5167V24.7273H71.0472ZM72.3176 32V24.7273H77.2182V25.995H73.8553V27.728H76.9661V28.9957H73.8553V30.7322H77.2324V32H72.3176ZM82.386 26.8189C82.3576 26.5324 82.2357 26.3099 82.0202 26.1513C81.8048 25.9927 81.5124 25.9134 81.1431 25.9134C80.8922 25.9134 80.6803 25.9489 80.5075 26.0199C80.3346 26.0885 80.2021 26.1844 80.1097 26.3075C80.0198 26.4306 79.9748 26.5703 79.9748 26.7266C79.9701 26.8568 79.9973 26.9704 80.0565 27.0675C80.118 27.1645 80.2021 27.2486 80.3086 27.3196C80.4151 27.3883 80.5382 27.4486 80.6779 27.5007C80.8176 27.5504 80.9667 27.593 81.1254 27.6286L81.7788 27.7848C82.096 27.8558 82.3872 27.9505 82.6523 28.0689C82.9175 28.1873 83.1471 28.3329 83.3413 28.5057C83.5354 28.6785 83.6857 28.8821 83.7923 29.1165C83.9012 29.3509 83.9568 29.6196 83.9592 29.9226C83.9568 30.3677 83.8432 30.7536 83.6183 31.0803C83.3957 31.4046 83.0737 31.6567 82.6523 31.8366C82.2333 32.0142 81.7279 32.103 81.136 32.103C80.5489 32.103 80.0375 32.013 79.6019 31.8331C79.1687 31.6532 78.8301 31.3868 78.5863 31.0341C78.3448 30.679 78.2182 30.2398 78.2063 29.7166H79.6942C79.7108 29.9605 79.7807 30.1641 79.9038 30.3274C80.0292 30.4884 80.1961 30.6103 80.4045 30.6932C80.6152 30.7737 80.8531 30.8139 81.1183 30.8139C81.3787 30.8139 81.6048 30.776 81.7965 30.7003C81.9906 30.6245 82.141 30.5192 82.2475 30.3842C82.354 30.2493 82.4073 30.0942 82.4073 29.919C82.4073 29.7557 82.3588 29.6184 82.2617 29.5071C82.167 29.3958 82.0273 29.3011 81.8427 29.223C81.6604 29.1449 81.4367 29.0739 81.1715 29.0099L80.3796 28.8111C79.7665 28.6619 79.2823 28.4287 78.9272 28.1115C78.5721 27.7943 78.3957 27.367 78.3981 26.8295C78.3957 26.3892 78.5129 26.0045 78.7496 25.6754C78.9888 25.3464 79.3166 25.0895 79.7333 24.9048C80.15 24.7202 80.6235 24.6278 81.1538 24.6278C81.6935 24.6278 82.1647 24.7202 82.5671 24.9048C82.9719 25.0895 83.2868 25.3464 83.5117 25.6754C83.7366 26.0045 83.8526 26.3857 83.8597 26.8189H82.386ZM88.9387 26.8189C88.9103 26.5324 88.7884 26.3099 88.573 26.1513C88.3575 25.9927 88.0652 25.9134 87.6958 25.9134C87.4449 25.9134 87.233 25.9489 87.0602 26.0199C86.8874 26.0885 86.7548 26.1844 86.6625 26.3075C86.5725 26.4306 86.5275 26.5703 86.5275 26.7266C86.5228 26.8568 86.55 26.9704 86.6092 27.0675C86.6708 27.1645 86.7548 27.2486 86.8613 27.3196C86.9679 27.3883 87.091 27.4486 87.2306 27.5007C87.3703 27.5504 87.5195 27.593 87.6781 27.6286L88.3315 27.7848C88.6487 27.8558 88.9399 27.9505 89.2051 28.0689C89.4702 28.1873 89.6999 28.3329 89.894 28.5057C90.0881 28.6785 90.2385 28.8821 90.345 29.1165C90.4539 29.3509 90.5095 29.6196 90.5119 29.9226C90.5095 30.3677 90.3959 30.7536 90.171 31.0803C89.9484 31.4046 89.6265 31.6567 89.2051 31.8366C88.786 32.0142 88.2806 32.103 87.6887 32.103C87.1016 32.103 86.5903 32.013 86.1547 31.8331C85.7214 31.6532 85.3829 31.3868 85.139 31.0341C84.8975 30.679 84.7709 30.2398 84.7591 29.7166H86.247C86.2636 29.9605 86.3334 30.1641 86.4565 30.3274C86.582 30.4884 86.7489 30.6103 86.9572 30.6932C87.1679 30.7737 87.4058 30.8139 87.671 30.8139C87.9314 30.8139 88.1575 30.776 88.3493 30.7003C88.5434 30.6245 88.6937 30.5192 88.8002 30.3842C88.9068 30.2493 88.96 30.0942 88.96 29.919C88.96 29.7557 88.9115 29.6184 88.8145 29.5071C88.7198 29.3958 88.5801 29.3011 88.3954 29.223C88.2131 29.1449 87.9894 29.0739 87.7243 29.0099L86.9324 28.8111C86.3192 28.6619 85.835 28.4287 85.4799 28.1115C85.1248 27.7943 84.9484 27.367 84.9508 26.8295C84.9484 26.3892 85.0656 26.0045 85.3024 25.6754C85.5415 25.3464 85.8694 25.0895 86.286 24.9048C86.7027 24.7202 87.1762 24.6278 87.7065 24.6278C88.2463 24.6278 88.7174 24.7202 89.1199 24.9048C89.5247 25.0895 89.8395 25.3464 90.0645 25.6754C90.2894 26.0045 90.4054 26.3857 90.4125 26.8189H88.9387Z" fill="#AE1A16"/>
</svg>
