<svg width="50" height="50" viewBox="0 0 50 50" fill="none" xmlns="http://www.w3.org/2000/svg">
<path d="M6.25 22.9167V32.9171C6.25 35.2506 6.25 36.4168 6.70414 37.3081C7.10361 38.0921 7.74057 38.7302 8.52458 39.1296C9.415 39.5833 10.5812 39.5833 12.9102 39.5833H37.0898C39.4188 39.5833 40.5833 39.5833 41.4737 39.1296C42.2577 38.7302 42.8968 38.0921 43.2963 37.3081C43.75 36.4176 43.75 35.2531 43.75 32.9241V22.9167M6.25 22.9167V18.75M6.25 22.9167H43.75M6.25 18.75V17.0837C6.25 14.7502 6.25 13.5825 6.70414 12.6912C7.10361 11.9072 7.74057 11.2703 8.52458 10.8708C9.41588 10.4167 10.5835 10.4167 12.9171 10.4167H37.0837C39.4173 10.4167 40.5824 10.4167 41.4737 10.8708C42.2577 11.2703 42.8968 11.9072 43.2963 12.6912C43.75 13.5817 43.75 14.7479 43.75 17.0769V18.75M6.25 18.75H43.75M14.5833 31.25H22.9167M43.75 22.9167V18.75" stroke="white" stroke-width="3" stroke-linecap="round" stroke-linejoin="round"/>
</svg>
