<svg width="20" height="20" viewBox="0 0 20 20" fill="none" xmlns="http://www.w3.org/2000/svg">
<path d="M15 15.8333C15 13.9924 12.7614 12.5 10 12.5C7.23858 12.5 5 13.9924 5 15.8333M10 10C8.15905 10 6.66667 8.50763 6.66667 6.66668C6.66667 4.82573 8.15905 3.33334 10 3.33334C11.8409 3.33334 13.3333 4.82573 13.3333 6.66668C13.3333 8.50763 11.8409 10 10 10Z" stroke="#868383" stroke-width="1.5" stroke-linecap="round" stroke-linejoin="round"/>
<path d="M17.7842 13.6314L17.6621 13.5684C17.6431 13.5586 17.6338 13.5537 17.6247 13.5486C17.5336 13.498 17.4568 13.428 17.4008 13.3444C17.3952 13.336 17.3899 13.3271 17.379 13.3097C17.3682 13.2923 17.3627 13.2834 17.3576 13.2747C17.3074 13.1877 17.2802 13.0907 17.2786 12.992C17.2784 12.982 17.2785 12.9719 17.2788 12.9517L17.2812 12.8202C17.285 12.6096 17.2869 12.504 17.2551 12.4093C17.2267 12.3251 17.1793 12.2476 17.116 12.1818C17.0445 12.1074 16.9455 12.0543 16.7473 11.9483L16.5826 11.8603C16.3849 11.7546 16.286 11.7018 16.1811 11.6816C16.0882 11.6638 15.9924 11.6646 15.8999 11.6839C15.7955 11.7056 15.6978 11.7599 15.5027 11.8683L15.5015 11.8688L15.3836 11.9343C15.3649 11.9447 15.3555 11.9499 15.3461 11.9547C15.2533 12.0026 15.1497 12.0291 15.0436 12.0322C15.0329 12.0325 15.022 12.0325 15.0003 12.0325C14.9786 12.0325 14.9673 12.0325 14.9566 12.0322C14.8503 12.029 14.7465 12.0024 14.6535 11.9544C14.6442 11.9495 14.6349 11.9443 14.6162 11.9338L14.4975 11.8677C14.301 11.7583 14.2026 11.7035 14.0976 11.6816C14.0047 11.6623 13.9085 11.6617 13.8153 11.6798C13.7101 11.7002 13.6112 11.7534 13.4134 11.8599L13.4125 11.8603L13.2499 11.9479L13.2481 11.9489C13.0521 12.0544 12.9538 12.1073 12.8829 12.1814C12.82 12.2471 12.7729 12.3246 12.7448 12.4085C12.7129 12.5034 12.7146 12.6092 12.7185 12.8208L12.7208 12.9521C12.7212 12.972 12.7218 12.9819 12.7217 12.9917C12.7201 13.0906 12.6926 13.1878 12.6422 13.275C12.6372 13.2836 12.6318 13.2922 12.6211 13.3095C12.6104 13.3267 12.6052 13.3353 12.5996 13.3436C12.5433 13.4277 12.4662 13.498 12.3746 13.5487C12.3655 13.5537 12.356 13.5586 12.3372 13.5682L12.2166 13.6302C12.016 13.7333 11.9158 13.7849 11.8428 13.8584C11.7782 13.9234 11.7295 14.0004 11.6997 14.0844C11.6661 14.1793 11.6661 14.2857 11.6666 14.4984L11.667 14.6724C11.6676 14.8837 11.6683 14.9893 11.702 15.0836C11.7318 15.1669 11.7802 15.2436 11.8444 15.3081C11.917 15.3811 12.0163 15.4324 12.2153 15.5352L12.3348 15.5969C12.3552 15.6074 12.3654 15.6125 12.3752 15.618C12.466 15.6687 12.5425 15.7389 12.5983 15.8225C12.6043 15.8315 12.6101 15.8409 12.6217 15.8597C12.6331 15.8782 12.6389 15.8874 12.6442 15.8967C12.6931 15.9826 12.7193 16.0781 12.7211 16.1752C12.7213 16.1857 12.7211 16.1963 12.7207 16.2177L12.7185 16.3438C12.7146 16.556 12.7129 16.6623 12.7449 16.7574C12.7733 16.8416 12.8206 16.9191 12.8839 16.9849C12.9554 17.0593 13.0546 17.1123 13.2528 17.2183L13.4175 17.3063C13.6152 17.412 13.714 17.4648 13.8189 17.485C13.9118 17.5028 14.0077 17.5021 14.1002 17.4828C14.2047 17.4611 14.3027 17.4066 14.4984 17.2979L14.6164 17.2324C14.6351 17.222 14.6446 17.2168 14.6539 17.212C14.7467 17.1641 14.8502 17.1375 14.9563 17.1343C14.967 17.134 14.9779 17.134 14.9996 17.134C15.0214 17.134 15.0323 17.134 15.043 17.1343C15.1494 17.1375 15.2535 17.1642 15.3464 17.2123C15.3546 17.2165 15.3628 17.2211 15.3772 17.2291L15.5026 17.299C15.6991 17.4084 15.7973 17.4631 15.9023 17.4849C15.9952 17.5042 16.0915 17.505 16.1846 17.487C16.2898 17.4666 16.3889 17.4132 16.5866 17.3068L16.7517 17.2179C16.9479 17.1123 17.0462 17.0593 17.1172 16.9852C17.1801 16.9195 17.2272 16.8421 17.2554 16.7582C17.287 16.664 17.2851 16.559 17.2813 16.3505L17.2788 16.2145C17.2785 16.1946 17.2784 16.1847 17.2786 16.1749C17.2802 16.076 17.3072 15.9788 17.3576 15.8916C17.3626 15.883 17.368 15.8743 17.3787 15.8571C17.3894 15.8399 17.395 15.8313 17.4006 15.823C17.4568 15.7389 17.534 15.6685 17.6256 15.6178C17.6346 15.6128 17.6438 15.6081 17.6621 15.5987L17.6628 15.5984L17.7833 15.5364C17.9839 15.4333 18.0844 15.3816 18.1574 15.3081C18.2219 15.2432 18.2706 15.1662 18.3004 15.0823C18.3338 14.9879 18.3336 14.8821 18.3331 14.6719L18.3326 14.4942C18.3321 14.2829 18.3318 14.1773 18.2981 14.083C18.2683 13.9997 18.2196 13.923 18.1554 13.8584C18.0829 13.7855 17.9835 13.7342 17.7848 13.6317L17.7842 13.6314Z" fill="white"/>
<path d="M13.6661 14.5833C13.6661 15.2668 14.2633 15.8208 14.9999 15.8208C15.7366 15.8208 16.3338 15.2668 16.3338 14.5833C16.3338 13.8999 15.7366 13.3458 14.9999 13.3458C14.2633 13.3458 13.6661 13.8999 13.6661 14.5833Z" fill="white"/>
<path d="M17.7842 13.6314L17.6621 13.5684C17.6431 13.5586 17.6338 13.5537 17.6247 13.5486C17.5336 13.498 17.4568 13.428 17.4008 13.3444C17.3952 13.336 17.3899 13.3271 17.379 13.3097C17.3682 13.2923 17.3627 13.2834 17.3576 13.2747C17.3074 13.1877 17.2802 13.0907 17.2786 12.992C17.2784 12.982 17.2785 12.9719 17.2788 12.9517L17.2812 12.8202C17.285 12.6096 17.2869 12.504 17.2551 12.4093C17.2267 12.3251 17.1793 12.2476 17.116 12.1818C17.0445 12.1074 16.9455 12.0543 16.7473 11.9483L16.5826 11.8603C16.3849 11.7546 16.286 11.7018 16.1811 11.6816C16.0882 11.6638 15.9924 11.6646 15.8999 11.6839C15.7955 11.7056 15.6978 11.7599 15.5027 11.8683L15.5015 11.8688L15.3836 11.9343C15.3649 11.9447 15.3555 11.9499 15.3461 11.9547C15.2533 12.0026 15.1497 12.0291 15.0436 12.0322C15.0329 12.0325 15.022 12.0325 15.0003 12.0325C14.9786 12.0325 14.9673 12.0325 14.9566 12.0322C14.8503 12.029 14.7465 12.0024 14.6535 11.9544C14.6442 11.9495 14.6349 11.9443 14.6162 11.9338L14.4975 11.8677C14.301 11.7583 14.2026 11.7035 14.0976 11.6816C14.0047 11.6623 13.9085 11.6617 13.8153 11.6798C13.7101 11.7002 13.6112 11.7534 13.4134 11.8599L13.4125 11.8603L13.2499 11.9479L13.2481 11.9489C13.0521 12.0544 12.9538 12.1073 12.8829 12.1814C12.82 12.2471 12.7729 12.3246 12.7448 12.4085C12.7129 12.5034 12.7146 12.6092 12.7185 12.8208L12.7208 12.9521C12.7212 12.972 12.7218 12.9819 12.7217 12.9917C12.7201 13.0906 12.6926 13.1878 12.6422 13.275C12.6372 13.2836 12.6318 13.2922 12.6211 13.3095C12.6104 13.3267 12.6052 13.3353 12.5996 13.3436C12.5433 13.4277 12.4662 13.498 12.3746 13.5487C12.3655 13.5537 12.356 13.5586 12.3372 13.5682L12.2166 13.6302C12.016 13.7333 11.9158 13.7849 11.8428 13.8584C11.7782 13.9234 11.7295 14.0004 11.6997 14.0844C11.6661 14.1793 11.6661 14.2857 11.6666 14.4984L11.667 14.6724C11.6676 14.8837 11.6683 14.9893 11.702 15.0836C11.7318 15.1669 11.7802 15.2436 11.8444 15.3081C11.917 15.3811 12.0163 15.4324 12.2153 15.5352L12.3348 15.5969C12.3552 15.6074 12.3654 15.6125 12.3752 15.618C12.466 15.6687 12.5425 15.7389 12.5983 15.8225C12.6043 15.8315 12.6101 15.8409 12.6217 15.8597C12.6331 15.8782 12.6389 15.8874 12.6442 15.8967C12.6931 15.9826 12.7193 16.0781 12.7211 16.1752C12.7213 16.1857 12.7211 16.1963 12.7207 16.2177L12.7185 16.3438C12.7146 16.556 12.7129 16.6623 12.7449 16.7574C12.7733 16.8416 12.8206 16.9191 12.8839 16.9849C12.9554 17.0593 13.0546 17.1123 13.2528 17.2183L13.4175 17.3063C13.6152 17.412 13.714 17.4648 13.8189 17.485C13.9118 17.5028 14.0077 17.5021 14.1002 17.4828C14.2047 17.4611 14.3027 17.4066 14.4984 17.2979L14.6164 17.2324C14.6351 17.222 14.6446 17.2168 14.6539 17.212C14.7467 17.1641 14.8502 17.1375 14.9563 17.1343C14.967 17.134 14.9779 17.134 14.9996 17.134C15.0214 17.134 15.0323 17.134 15.043 17.1343C15.1494 17.1375 15.2535 17.1642 15.3464 17.2123C15.3546 17.2165 15.3628 17.2211 15.3772 17.2291L15.5026 17.299C15.6991 17.4084 15.7973 17.4631 15.9023 17.4849C15.9952 17.5042 16.0915 17.505 16.1846 17.487C16.2898 17.4666 16.3889 17.4132 16.5866 17.3068L16.7517 17.2179C16.9479 17.1123 17.0462 17.0593 17.1172 16.9852C17.1801 16.9195 17.2272 16.8421 17.2554 16.7582C17.287 16.664 17.2851 16.559 17.2813 16.3505L17.2788 16.2145C17.2785 16.1946 17.2784 16.1847 17.2786 16.1749C17.2802 16.076 17.3072 15.9788 17.3576 15.8916C17.3626 15.883 17.368 15.8743 17.3787 15.8571C17.3894 15.8399 17.395 15.8313 17.4006 15.823C17.4568 15.7389 17.534 15.6685 17.6256 15.6178C17.6346 15.6128 17.6438 15.6081 17.6621 15.5987L17.6628 15.5984L17.7833 15.5364C17.9839 15.4333 18.0844 15.3816 18.1574 15.3081C18.2219 15.2432 18.2706 15.1662 18.3004 15.0823C18.3338 14.9879 18.3336 14.8821 18.3331 14.6719L18.3326 14.4942C18.3321 14.2829 18.3318 14.1773 18.2981 14.083C18.2683 13.9997 18.2196 13.923 18.1554 13.8584C18.0829 13.7855 17.9835 13.7342 17.7848 13.6317L17.7842 13.6314Z" stroke="#868383" stroke-linecap="round" stroke-linejoin="round"/>
<path d="M13.6661 14.5833C13.6661 15.2668 14.2633 15.8208 14.9999 15.8208C15.7366 15.8208 16.3338 15.2668 16.3338 14.5833C16.3338 13.8999 15.7366 13.3458 14.9999 13.3458C14.2633 13.3458 13.6661 13.8999 13.6661 14.5833Z" stroke="#868383" stroke-linecap="round" stroke-linejoin="round"/>
</svg>
